<svg width="512" height="512" viewBox="0 0 512 512" fill="none" xmlns="http://www.w3.org/2000/svg">
<rect x="48" y="48" width="192" height="192" rx="12" fill="#DC3545"/>
<rect x="272" y="48" width="192" height="192" rx="12" fill="#198754"/>
<rect x="48" y="272" width="192" height="192" rx="12" fill="#198754"/>
<rect x="272" y="272" width="192" height="192" rx="12" fill="#DC3545"/>
<path d="M132.155 206.562L99.0267 214.606L108.894 92.4648L150.856 82.2756L215.638 186.29L182.51 194.334L137.878 118.404L136.995 118.618L132.155 206.562ZM115.138 163.45L177.419 148.327L182.997 171.296L120.716 186.419L115.138 163.45Z" fill="white"/>
<path d="M350.22 200.877C341.702 198.165 334.618 194.259 328.967 189.16C323.364 184.036 319.512 178.218 317.412 171.705C315.348 165.204 315.378 158.495 317.501 151.579L346.736 160.889C345.626 164.749 346.134 168.271 348.261 171.452C350.425 174.646 353.491 176.875 357.462 178.139C360.529 179.116 363.443 179.329 366.203 178.776C368.974 178.188 371.413 176.898 373.518 174.905C375.624 172.912 377.17 170.303 378.157 167.08C379.228 163.843 379.475 160.821 378.898 158.013C378.333 155.17 377.084 152.725 375.152 150.678C373.231 148.596 370.737 147.066 367.669 146.089C364.493 145.077 361.304 144.917 358.103 145.606C354.949 146.272 352.31 147.757 350.184 150.061L325.42 136.45L349.199 76.7606L423.695 100.485L416.039 124.523L366.231 108.661L356.273 132.442L356.922 132.649C359.724 129.844 363.604 128.019 368.565 127.173C373.536 126.292 378.837 126.748 384.468 128.541C391.073 130.644 396.467 134.052 400.651 138.764C404.872 143.487 407.618 149.032 408.889 155.4C410.208 161.743 409.729 168.428 407.451 175.455C405.028 183.19 401.003 189.462 395.377 194.269C389.799 199.052 383.132 202.077 375.374 203.343C367.628 204.573 359.243 203.751 350.22 200.877Z" fill="white"/>
<path d="M131.318 410.091V326H156.773V410.091H131.318ZM102 380.773V355.318H186.091V380.773H102Z" fill="white"/>
<path d="M340.452 438.096L334.991 421.47L364.338 334.564L312.3 351.655L304.358 327.472L394.614 297.828L400.075 314.454L370.727 401.36L422.765 384.269L430.708 408.452L340.452 438.096Z" fill="white"/>
</svg>
