<svg width="32" height="32" viewBox="0 0 32 32" fill="none" xmlns="http://www.w3.org/2000/svg">
<rect width="32" height="32" rx="3.55556" fill="url(#paint0_linear_37_7)"/>
<mask id="path-2-inside-1_37_7" fill="white">
<path d="M5.33334 5.22564C5.33334 3.32147 6.87697 1.77783 8.78115 1.77783V1.77783C8.84065 1.77783 8.88889 1.82607 8.88889 1.88558V12.4445C8.88889 13.1579 8.88889 13.5146 8.71769 13.7708C8.64357 13.8817 8.54833 13.977 8.43741 14.0511C8.18118 14.2223 7.82449 14.2223 7.11111 14.2223H5.71044C5.50217 14.2223 5.33334 14.0534 5.33334 13.8452V5.22564Z"/>
</mask>
<path d="M5.33334 5.22564C5.33334 3.32147 6.87697 1.77783 8.78115 1.77783V1.77783C8.84065 1.77783 8.88889 1.82607 8.88889 1.88558V12.4445C8.88889 13.1579 8.88889 13.5146 8.71769 13.7708C8.64357 13.8817 8.54833 13.977 8.43741 14.0511C8.18118 14.2223 7.82449 14.2223 7.11111 14.2223H5.71044C5.50217 14.2223 5.33334 14.0534 5.33334 13.8452V5.22564Z" stroke="white" stroke-width="2.22222" mask="url(#path-2-inside-1_37_7)"/>
<mask id="path-3-inside-2_37_7" fill="white">
<path d="M5.33334 19.8789C5.33334 19.7004 5.47805 19.5557 5.65657 19.5557H8.63492C9.5927 19.5557 10.0716 19.5557 10.3691 19.8532C10.6667 20.1507 10.6667 20.6296 10.6667 21.5874V30.0607C10.6667 30.15 10.5943 30.2223 10.5051 30.2223V30.2223C7.64879 30.2223 5.33334 27.9069 5.33334 25.0506V19.8789Z"/>
</mask>
<path d="M5.33334 19.8789C5.33334 19.7004 5.47805 19.5557 5.65657 19.5557H8.63492C9.5927 19.5557 10.0716 19.5557 10.3691 19.8532C10.6667 20.1507 10.6667 20.6296 10.6667 21.5874V30.0607C10.6667 30.15 10.5943 30.2223 10.5051 30.2223V30.2223C7.64879 30.2223 5.33334 27.9069 5.33334 25.0506V19.8789Z" stroke="white" stroke-width="2.22222" mask="url(#path-3-inside-2_37_7)"/>
<mask id="path-4-inside-3_37_7" fill="white">
<path d="M23.1111 1.88558C23.1111 1.82607 23.1594 1.77783 23.2189 1.77783V1.77783C25.123 1.77783 26.6667 3.32147 26.6667 5.22565V13.8452C26.6667 14.0534 26.4978 14.2223 26.2896 14.2223H24.8889C24.1755 14.2223 23.8188 14.2223 23.5626 14.0511C23.4517 13.977 23.3564 13.8817 23.2823 13.7708C23.1111 13.5146 23.1111 13.1579 23.1111 12.4445V1.88558Z"/>
</mask>
<path d="M23.1111 1.88558C23.1111 1.82607 23.1594 1.77783 23.2189 1.77783V1.77783C25.123 1.77783 26.6667 3.32147 26.6667 5.22565V13.8452C26.6667 14.0534 26.4978 14.2223 26.2896 14.2223H24.8889C24.1755 14.2223 23.8188 14.2223 23.5626 14.0511C23.4517 13.977 23.3564 13.8817 23.2823 13.7708C23.1111 13.5146 23.1111 13.1579 23.1111 12.4445V1.88558Z" stroke="white" stroke-width="2.22222" mask="url(#path-4-inside-3_37_7)"/>
<mask id="path-5-inside-4_37_7" fill="white">
<path d="M21.3333 21.5874C21.3333 20.6296 21.3333 20.1507 21.6309 19.8532C21.9284 19.5557 22.4073 19.5557 23.3651 19.5557H26.3434C26.522 19.5557 26.6667 19.7004 26.6667 19.8789V25.0506C26.6667 27.9069 24.3512 30.2223 21.495 30.2223V30.2223C21.4057 30.2223 21.3333 30.15 21.3333 30.0607V21.5874Z"/>
</mask>
<path d="M21.3333 21.5874C21.3333 20.6296 21.3333 20.1507 21.6309 19.8532C21.9284 19.5557 22.4073 19.5557 23.3651 19.5557H26.3434C26.522 19.5557 26.6667 19.7004 26.6667 19.8789V25.0506C26.6667 27.9069 24.3512 30.2223 21.495 30.2223V30.2223C21.4057 30.2223 21.3333 30.15 21.3333 30.0607V21.5874Z" stroke="white" stroke-width="2.22222" mask="url(#path-5-inside-4_37_7)"/>
<rect x="5.88889" y="15.6666" width="20.2222" height="2.44444" rx="1.22222" stroke="white" stroke-width="1.11111"/>
<defs>
<linearGradient id="paint0_linear_37_7" x1="15.9346" y1="32" x2="16.0654" y2="-5.70933e-07" gradientUnits="userSpaceOnUse">
<stop/>
<stop offset="0.99" stop-color="#444444"/>
</linearGradient>
</defs>
</svg>
